<?xml version="1.0" encoding="UTF-8"?>
<svg width="75px" height="68px" viewBox="0 0 75 68" version="1.1" xmlns="http://www.w3.org/2000/svg" xmlns:xlink="http://www.w3.org/1999/xlink">
    <!-- Generator: Sketch 54.1 (76490) - https://sketchapp.com -->
    <title>购物车</title>
    <desc>Created with Sketch.</desc>
    <g id="页面1" stroke="none" stroke-width="1" fill="none" fill-rule="evenodd">
        <g id="产品详情页_加入购物车" transform="translate(-923.000000, -422.000000)" fill="#FF6700" fill-rule="nonzero">
            <g id="购物车" transform="translate(923.000000, 422.000000)">
                <path d="M25.1638128,53.8565187 C26.1267809,53.8565187 27.0390641,54.0329969 27.9006625,54.3859539 C28.7622609,54.7389109 29.5098313,55.2305314 30.1433588,55.8608089 C30.7768886,56.4910885 31.2837129,57.2348215 31.6638309,58.0919997 C32.0439489,58.949178 32.2340079,59.856781 32.2340079,60.814809 C32.2340079,61.7728369 32.0439489,62.68044 31.6638309,63.5376182 C31.2837129,64.3947964 30.7768864,65.1385317 30.1433588,65.7688091 C29.509829,66.3990888 28.7622609,66.9033129 27.9006625,67.2814809 C27.0390641,67.6596488 26.1267809,67.8487328 25.1638128,67.8487328 C24.1501672,67.8487328 23.2125378,67.6596488 22.3509394,67.2814809 C21.4893411,66.9033129 20.7417707,66.3990866 20.1082431,65.7688091 C19.4747134,65.1385294 18.9678891,64.3947964 18.5877711,63.5376182 C18.2076531,62.68044 18.017594,61.7728369 18.017594,60.814809 C18.017594,59.856781 18.2076531,58.949178 18.5877711,58.0919997 C18.9678891,57.2348215 19.4747156,56.4910863 20.1082431,55.8608089 C20.7417729,55.2305292 21.4893411,54.7389131 22.3509394,54.3859539 C23.2125378,54.0329969 24.1501672,53.8565187 25.1638128,53.8565187 Z M56.7896319,54.0077859 C57.7526,54.0077859 58.6775489,54.184264 59.5644934,54.537221 C60.4514379,54.890178 61.2116739,55.3817986 61.8452015,56.012076 C62.4787313,56.6423557 62.9855556,57.3860887 63.3656736,58.2432669 C63.7457916,59.1004451 63.9358506,60.0080482 63.9358506,60.9660762 C63.9358506,61.9241041 63.7457916,62.8317072 63.3656736,63.6888854 C62.9855556,64.5460636 62.4787291,65.2897988 61.8452015,65.9200763 C61.2116717,66.550356 60.4514379,67.0545801 59.5644934,67.4327481 C58.6775489,67.810916 57.7526,68 56.7896319,68 C55.8266637,68 54.9143805,67.810916 54.0527821,67.4327481 C53.1911838,67.0545801 52.4436134,66.5503537 51.8100858,65.9200763 C51.176556,65.2897966 50.6697318,64.5460636 50.2896138,63.6888854 C49.9094957,62.8317072 49.7194367,61.9241041 49.7194367,60.9660762 C49.7194367,60.0080482 49.9094957,59.1004451 50.2896138,58.2432669 C50.6697318,57.3860887 51.1765583,56.6423535 51.8100858,56.012076 C52.4436156,55.3817964 53.1911838,54.8901802 54.0527821,54.537221 C54.9143805,54.184264 55.8266637,54.0077859 56.7896319,54.0077859 Z M69.5615973,11.047907 C70.980707,11.047907 72.0830493,11.2369909 72.868624,11.6151589 C73.6541988,11.9933268 74.2117102,12.4597364 74.5411433,13.0143803 C74.8705787,13.5690264 75.0226259,14.1614922 74.9972849,14.7917696 C74.9719437,15.4220493 74.8832495,15.9640903 74.7312023,16.4178918 C74.5791551,16.8716934 74.2497197,17.8045052 73.7428955,19.2163346 C73.2360712,20.6281641 72.6912381,22.1786527 72.108388,23.8678004 C71.5255401,25.5569481 70.9426952,27.2334952 70.3598451,28.8974341 C69.7769972,30.5613731 69.3081877,31.8723529 68.9534084,32.8303808 C68.294537,34.847279 67.4709482,36.2465004 66.4826413,37.028045 C65.4943345,37.8095896 64.2652837,38.2003657 62.7954965,38.2003657 L60.1346704,38.2003657 L55.2691598,38.2003657 L48.8831771,38.2003657 L41.7369584,38.2003657 L22.8831047,38.2003657 L23.9474351,45.0073887 L62.3393549,45.0073887 C64.7721102,45.0073887 65.9884879,46.0410503 65.9884879,48.1083659 C65.9884879,49.1168113 65.7477462,49.9992057 65.2662637,50.7555415 C64.7847811,51.5118774 63.8344883,51.8648367 62.4153785,51.8144118 L58.7662456,51.8144118 L51.772074,51.8144118 L42.953336,51.8144118 L34.0585744,51.8144118 L26.6842849,51.8144118 L22.5790103,51.8144118 C21.5653647,51.8144118 20.716432,51.587511 20.0322195,51.1337095 C19.3480071,50.679908 18.7778301,50.0874473 18.3216885,49.3563201 C17.8655468,48.6251952 17.4981019,47.8310403 17.2193462,46.9738621 C16.9405927,46.1166838 16.7251928,45.3099231 16.5731456,44.5535872 C16.5224632,44.2510528 16.3830866,43.5199257 16.1550158,42.3602131 C15.9269449,41.2005005 15.6481915,39.7508542 15.3187561,38.0112817 C14.9893208,36.2717091 14.6218728,34.3304445 14.2164139,32.1874953 C13.8109549,30.044546 13.405493,27.8889887 13.0000362,25.7208234 C12.0370681,20.6281641 10.9473989,14.955667 9.73102126,8.70326567 L4.02925099,8.70326567 C3.26901495,8.70326567 2.6354874,8.5141817 2.1286609,8.13601375 C1.62183663,7.7578458 1.20370458,7.30404426 0.874271441,6.77460914 C0.544836073,6.24517401 0.316765262,5.67792209 0.190059009,5.07285337 C0.0633527555,4.46778465 0,3.91314079 0,3.40891439 C0,2.40046899 0.342106216,1.56849951 1.02631865,0.913005934 C1.71053108,0.257514577 2.6354874,-0.0450219975 3.80118018,0.00540285767 L11.4795641,0.00540285767 C12.4932097,0.00540285767 13.3041306,0.156670037 13.9123195,0.459204396 C14.5205083,0.761738755 15.0019886,1.1399067 15.3567679,1.59370824 C15.711545,2.04750978 15.9649567,2.51391938 16.117004,2.99292965 C16.2690512,3.47194214 16.3957574,3.88792467 16.497122,4.24088388 C16.5984865,4.64426278 16.6998518,5.21151249 16.8012164,5.94263965 C16.9025809,6.6737646 17.0039462,7.41749465 17.1053108,8.17383055 C17.257358,9.08143362 17.4094052,10.0394616 17.5614524,11.047907 L69.5615973,11.047907 L69.5615973,11.047907 Z M66.7487239,17.7792964 L19.1579481,17.6280293 L21.8187742,31.317709 L61.5791189,31.3933426 L66.7487239,17.7792964 Z" id="形状"></path>
            </g>
        </g>
    </g>
</svg>